<svg xmlns="http://www.w3.org/2000/svg" viewBox="0 0 490.41 143.62"><defs><style>.cls-1,.cls-2{fill:#76bc21;}.cls-2,.cls-4{fill-rule:evenodd;}.cls-3,.cls-4{fill:#353433;}</style></defs><g id="Capa_2" data-name="Capa 2"><g id="Capa_1-2" data-name="Capa 1"><g id="Midway_positivo" data-name="Midway positivo"><g id="Ilustración_2" data-name="Ilustración 2"><path class="cls-1" d="M385.7,101.51a36.22,36.22,0,0,1-1.44-8,29.2,29.2,0,0,1-11,7.5,41.85,41.85,0,0,1-15.91,2.8q-15.36,0-22.5-6.78t-7.14-17.62q0-9.57,3.08-15.27a22.86,22.86,0,0,1,8.49-8.95,41.06,41.06,0,0,1,12.92-4.79q7.5-1.53,16.36-2.8t11.93-3.34q3.07-2.09,3.07-6.78a7.56,7.56,0,0,0-4.06-6.78q-4.08-2.43-10.94-2.44-8.13,0-11.66,3.62a17,17,0,0,0-4.43,9.58H330.58a40.27,40.27,0,0,1,2.25-12.66,24.41,24.41,0,0,1,6.69-9.94,31.33,31.33,0,0,1,12-6.41,62.46,62.46,0,0,1,18.07-2.26,58.69,58.69,0,0,1,17.81,2.35,28.57,28.57,0,0,1,11.75,6.78,25.72,25.72,0,0,1,6.41,11,51.5,51.5,0,0,1,2,14.91v56.21ZM384.07,58a12.69,12.69,0,0,1-5.24,2.9,96.38,96.38,0,0,1-9.94,2.34q-10.12,2-13.91,5.06t-3.8,8.86q0,9.94,11.39,9.94a22.72,22.72,0,0,0,8.4-1.53,20.5,20.5,0,0,0,11.21-10.31,16.93,16.93,0,0,0,1.71-7.5Z"/><path class="cls-1" d="M466.92,89.76a18.54,18.54,0,0,1-9.13,9.31,32.52,32.52,0,0,1-14.91,3.35,36.63,36.63,0,0,1-13-2.26,29.55,29.55,0,0,1-10.3-6.51,30.22,30.22,0,0,1-6.78-10.12,34.48,34.48,0,0,1-2.44-13.29V12.59h23.5V66.81q0,16.64,15,16.63,8.13,0,13.11-4.7a15.72,15.72,0,0,0,5-11.93V12.59h23.49v91.27a42.41,42.41,0,0,1-3.16,16.81,35.61,35.61,0,0,1-8.68,12.47,38.08,38.08,0,0,1-13,7.77,46.63,46.63,0,0,1-16,2.71q-19.69,0-29.46-9.94c-6.5-6.62-9.26-17.55-9.26-29.12h21.37c0,5.3,1.54,11.29,4.61,14.3s7.68,4.52,13.83,4.52a14.33,14.33,0,0,0,6.14-1.35,16.67,16.67,0,0,0,5.16-3.8,18.33,18.33,0,0,0,3.61-6,22.62,22.62,0,0,0,1.36-8Z"/><path class="cls-2" d="M324.94,12.67H302.07c0,18.27.06,36.14,0,54,0,9.66-4.1,13.26-14.45,13.29s-14.38-3.49-14.49-13.22c-.15-14.23,0-28.48,0-42.71V12.55H251v5.91c0,16.15,0,32.29,0,48.43,0,4.26-.43,8.68-4.69,10.87a21,21,0,0,1-19,.39c-5.52-2.59-5.16-8.2-5.19-13.2C222,49.33,222,33.71,222,18.08V12.43h-22c0,5,0,9.91-.09,14.83a52.3,52.3,0,0,1,3.88,8,58.46,58.46,0,0,1,3.58,20.91,67.13,67.13,0,0,1-3.12,20.9,54.72,54.72,0,0,1-2.55,6.38c2.72,7.84,9.23,13.49,18.29,15.72,15.11,3.73,30,4.42,41.41-8,3.54,2.51,6.66,5.39,10.31,7.16,8.3,4,17.3,3.58,26.05,2.25,15.24-2.31,25.09-11.86,26.18-27.22,1.22-17.1.71-34.32.93-51.49C325,18.77,324.94,15.71,324.94,12.67Z"/><path class="cls-3" d="M105.53,10.7a39.49,39.49,0,0,1,17.34,9.06V0H99.38V9.36C101.34,9.73,103.38,10.17,105.53,10.7Z"/><path class="cls-4" d="M124.89,101.54h-22V95.89c0-15.63.07-31.25-.05-46.87,0-5,.33-10.61-5.19-13.2a21,21,0,0,0-19,.39C74.38,38.4,74,42.82,74,47.08c0,16.15,0,32.29,0,48.43v5.91h-22V89.93c0-14.23.1-28.47-.05-42.71C51.76,37.5,47.71,34,37.38,34S23,37.63,22.93,47.29c-.1,17.87,0,35.74,0,54H0c0-3,0-6.1,0-9.17C.24,75-.27,57.74,1,40.65,2,25.29,11.89,15.74,27.13,13.42c8.75-1.33,17.75-1.77,26.05,2.26,3.65,1.76,6.77,4.64,10.31,7.16,11.41-12.45,26.3-11.76,41.41-8,11.64,2.87,19.09,11.37,19.68,22.91C125.65,58.78,124.89,80,124.89,101.54Z"/><path class="cls-3" d="M128.28,101.51V12.69h34.38a44.68,44.68,0,0,1,16.58,3,36.49,36.49,0,0,1,13,8.63A39.94,39.94,0,0,1,200.78,38a50.57,50.57,0,0,1,3.08,18.19,59.14,59.14,0,0,1-2.75,18.53A41.67,41.67,0,0,1,193.29,89a35.24,35.24,0,0,1-12.18,9.23,36.74,36.74,0,0,1-15.65,3.28Zm33.8-17.85q11,0,16-6.85t5-20.55a48.37,48.37,0,0,0-1.22-11.63,18.49,18.49,0,0,0-3.94-7.94,15.53,15.53,0,0,0-7-4.49,33.24,33.24,0,0,0-10.3-1.39H148.14V83.66Z"/><path class="cls-3" d="M52.58,118.69V121H48.3v11.42H45.64V121H41.36v-2.34Z"/><path class="cls-3" d="M80.26,118.69V121H72.81v3.4h6.68v2.3H72.81v3.46h7.68v2.3H70.17V118.69Z"/><path class="cls-3" d="M105.12,121a4.57,4.57,0,1,0,0,9.14,5.5,5.5,0,0,0,3.73-1.61l1.56,1.73a7.88,7.88,0,0,1-5.43,2.36,7,7,0,1,1,.1-14,7.68,7.68,0,0,1,5.31,2.2l-1.54,1.93A5.15,5.15,0,0,0,105.12,121Z"/><path class="cls-3" d="M130.92,118.69v5.88h6.87v-5.88h2.63v13.76h-2.63v-5.58h-6.87v5.58h-2.63V118.69Z"/><path class="cls-3" d="M162,118.69l7.09,9.42v-9.42h2.56v13.76h-2.5l-7.07-9.4v9.4h-2.58V118.69Z"/><path class="cls-3" d="M204.38,125.57a7.35,7.35,0,1,1-7.34-7A7.06,7.06,0,0,1,204.38,125.57Zm-12,0a4.67,4.67,0,0,0,4.68,4.64,4.62,4.62,0,1,0-4.68-4.64Z"/><path class="cls-3" d="M225.05,118.69v11.38H231v2.38h-8.57V118.69Z"/><path class="cls-3" d="M262.36,125.57a7.35,7.35,0,1,1-7.34-7A7.06,7.06,0,0,1,262.36,125.57Zm-12,0a4.67,4.67,0,0,0,4.68,4.64,4.62,4.62,0,1,0-4.68-4.64Z"/><path class="cls-3" d="M289.26,125.61h2.3v5.17a9.64,9.64,0,0,1-5.44,1.79,7,7,0,0,1-7.28-7c0-3.95,3.23-7,7.43-7a8.46,8.46,0,0,1,5.39,2l-1.49,1.92a5.92,5.92,0,0,0-3.9-1.55,4.63,4.63,0,1,0,0,9.26,6.32,6.32,0,0,0,3-.86Z"/><path class="cls-3" d="M313,118.69v13.76h-2.63V118.69Z"/><path class="cls-3" d="M342.15,118.69V121H334.7v3.4h6.69v2.3H334.7v3.46h7.69v2.3H332.07V118.69Z"/><path class="cls-3" d="M365.3,121c-1.23,0-2,.45-2,1.3,0,2.79,7.39,1.27,7.37,6.21,0,2.58-2.24,4.07-5.27,4.07a9,9,0,0,1-5.82-2.2l1.11-2.22a7.76,7.76,0,0,0,4.75,2c1.48,0,2.36-.55,2.36-1.51,0-2.87-7.39-1.24-7.39-6.14,0-2.4,2.06-3.93,5.15-3.93a9.29,9.29,0,0,1,5,1.46l-1.06,2.28A8.72,8.72,0,0,0,365.3,121Z"/></g></g></g></g></svg>